inDegrees=no
num_controls=7
num_derivatives=13
num_iterations=115
num_multipliers=7
num_parameters=0
num_slacks=7
num_states=26
objective=5.307572
objective_accelerations=0.712202
objective_balance=0.034005
objective_effort=0.510122
objective_height=3.967622
objective_ligament=0.083621
solver_duration=1207.471875
status=Solve_Succeeded
success=true
DataType=double
version=3
OpenSimVersion=4.4-2022-07-23-0e9fedc
endheader
time	/jointset/ground_pelvis/pelvis_tilt/value	/jointset/ground_pelvis/pelvis_tx/value	/jointset/ground_pelvis/pelvis_ty/value	/jointset/hip_l/hip_flexion_l/value	/jointset/hip_l/hip_adduction_l/value	/jointset/hip_l/hip_rotation_l/value	/jointset/back/lumbar_extension/value	/jointset/patellofemoral_l/patellar_flexion_l/value	/jointset/knee_l/knee_flexion_l/value	/jointset/knee_l/knee_adduction_l/value	/jointset/knee_l/knee_rotation_l/value	/jointset/ankle_l/ankle_angle_l/value	/jointset/subtalar_l/subtalar_angle_l/value	/jointset/ground_pelvis/pelvis_tilt/speed	/jointset/ground_pelvis/pelvis_tx/speed	/jointset/ground_pelvis/pelvis_ty/speed	/jointset/hip_l/hip_flexion_l/speed	/jointset/hip_l/hip_adduction_l/speed	/jointset/hip_l/hip_rotation_l/speed	/jointset/back/lumbar_extension/speed	/jointset/patellofemoral_l/patellar_flexion_l/speed	/jointset/knee_l/knee_flexion_l/speed	/jointset/knee_l/knee_adduction_l/speed	/jointset/knee_l/knee_rotation_l/speed	/jointset/ankle_l/ankle_angle_l/speed	/jointset/subtalar_l/subtalar_angle_l/speed	/forceset/tau_hip_flexion_l	/forceset/tau_hip_adduction_l	/forceset/tau_hip_rotation_l	/forceset/tau_knee_flexion_l	/forceset/tau_ankle_angle_l	/forceset/tau_subtalar_angle_l	/forceset/tau_lumbar_extension	lambda_cid13_p0	lambda_cid13_p1	lambda_cid13_p2	lambda_cid13_p3	lambda_cid13_p4	lambda_cid13_p5	lambda_cid14_p0	/jointset/ground_pelvis/pelvis_tilt/accel	/jointset/ground_pelvis/pelvis_tx/accel	/jointset/ground_pelvis/pelvis_ty/accel	/jointset/hip_l/hip_flexion_l/accel	/jointset/hip_l/hip_adduction_l/accel	/jointset/hip_l/hip_rotation_l/accel	/jointset/back/lumbar_extension/accel	/jointset/patellofemoral_l/patellar_flexion_l/accel	/jointset/knee_l/knee_flexion_l/accel	/jointset/knee_l/knee_adduction_l/accel	/jointset/knee_l/knee_rotation_l/accel	/jointset/ankle_l/ankle_angle_l/accel	/jointset/subtalar_l/subtalar_angle_l/accel	gamma_cid13_p0	gamma_cid13_p1	gamma_cid13_p2	gamma_cid13_p3	gamma_cid13_p4	gamma_cid13_p5	gamma_cid14_p0
0	-0.1539390646911958	0.05625172435136243	0.8977935285079867	0.3774920279260975	-0.2620162838597461	-0.2226755354490736	-0.0126506700172305	0.03223623128434915	0.03223623128433527	-0.1745325078126223	0.1265420328683749	-0.04231376238535053	-0.01273064645856057	0	0	0	0	0	0	0	0	0	0	0	0	0	0.1295602400759266	-0.05471725159300662	-0.03483314682753235	-0.2511222714603906	0.2256907682117598	-0.03136054503012483	-0.08598375076997404	32.15648210785497	3.747095121929384	3.84605846424721	14.07445579521923	-569.7993081090624	-64.1627399444755	-37.66663107473299	-2.8371429072395	-2.775541635133464	-1.328236205001318	16.75477361476056	-0.4242337217491966	4.245114806369728	-8.087499129123964	17.54830049698161	17.54830049697935	3.012171139910685	1.612428028387437	4.549511572238955	0.5652812217258415	4.633045689831741e-09	4.558165386638934e-07	-2.095759591545379e-08	-4.086740411901487e-09	3.453808575622978e-07	6.100117825601157e-08	3.755189713278011e-08
0.01	-0.1540729616088975	0.05611512958002243	0.8977288321837054	0.3783083681583899	-0.2620372090124009	-0.2224633485626396	-0.01305515937510813	0.03309576567203313	0.03309576567203519	-0.1743847949618992	0.1266169276578712	-0.04209109630160364	-0.01270319794363973	-0.02660069115941741	-0.02713930579922137	-0.01289742398476228	0.1623604268028188	-0.004133099161385976	0.04218450870321433	-0.08026757022332931	0.1710499725957727	0.1710499725957514	0.02942164345615987	0.01491434174095958	0.04436861467735286	0.005503127502115651	0.1235439171395723	-0.06231282780076787	-0.03388865089406745	-0.2460742751409999	0.2184984017232813	-0.02055684333952284	-0.08062019384075221	30.2019104962878	-0.4008459624947707	4.276762494088449	14.06972255070388	-571.5640464135314	-72.17061643500689	-37.69287197219393	-2.544739995321615	-2.656178599810533	-1.264150288350861	15.8405287396266	-0.400142470766801	4.167213041927699	-7.901840766215439	16.75480238924203	16.75480238923987	2.889100365150911	1.421278357512371	4.35585109846977	0.5447728529092868	-4.003409329103564e-08	4.814896155860069e-07	7.915942973574106e-08	6.305217656058181e-08	4.267591174841131e-08	1.885724199891637e-08	3.283432348888749e-08
0.02	-0.1544675069931868	0.0557125310411906	0.8975364306609507	0.3807210829640307	-0.2620979240481552	-0.2218368977612426	-0.01424341539466698	0.03564009113536793	0.03564009113536438	-0.1739464777932404	0.1268390340868533	-0.04142968113448504	-0.01262032928600658	-0.05212969332001269	-0.05320075349836747	-0.02554103969466685	0.3192749146689873	-0.007957976620106165	0.0828527829916504	-0.1567533323377586	0.3369582151262303	0.3369582151261893	0.05812086357960365	0.02944232790440915	0.08774981667416128	0.01108402854242237	0.1175275942032124	-0.06990840400857577	-0.03294415496076795	-0.2410262788215718	0.2113060352348021	-0.009753141648963837	-0.07525663691152557	28.39706875199748	-4.57067429381875	4.706013105225422	13.76982659917743	-571.0836184320385	-79.95700813514209	-37.77003576784661	-2.622805107474993	-2.559970015118578	-1.277474550029786	15.66558582743064	-0.3625893812160126	3.941867923414072	-7.331137507343978	16.51995448391866	16.51995448391673	2.867686473367535	1.535156912885453	4.352029036129893	0.58083592936404	-8.470123227190302e-08	5.071626925081205e-07	1.792764553869359e-07	1.301910935330651e-07	-2.600290340654751e-07	-2.328669425817882e-08	2.811674984499488e-08
0.03	-0.1551126907578575	0.05505488119286834	0.8972181652585592	0.384676943498284	-0.2621949189370547	-0.2208119076998422	-0.01617713745260215	0.03981867559872663	0.03981867559871635	-0.1732243733732024	0.1272047345887763	-0.04033891325197561	-0.01248079083293181	-0.07673062703834937	-0.0781283873968643	-0.03812574804038947	0.4709902589649561	-0.01137585199283593	0.1219167787277834	-0.2293836959356156	0.4979120551083935	0.4979120551083958	0.08616223140478196	0.04356343728533636	0.1302601006670879	0.01684924370868203	0.1117642947968844	-0.06554724193852123	-0.03231428564268697	-0.2378553251845488	0.2093986373821589	-0.01147853252403248	-0.07008590589382588	27.81631804139097	-3.79815444951808	4.672520102971847	12.89419477982361	-570.3545233666667	-77.44179051364192	-37.89474169528906	-2.352271986661543	-2.429009452899548	-1.251078294256026	14.78846298544717	-0.3217179519483772	3.854389090249627	-7.137878288977987	15.75609978567119	15.75609978567865	2.751801602546762	1.33043978302522	4.178983316412919	0.57810177100724	-1.113930633214949e-07	4.475760223896777e-07	2.458819428494752e-07	1.690133146602548e-07	-4.607604222966141e-07	-6.86866005536856e-08	1.895527607454212e-08
0.04	-0.1559985907562227	0.05415398513042329	0.8967736309092305	0.3901227483264613	-0.2623241588470125	-0.2194031329427742	-0.01881894164710154	0.04558139866797282	0.04558139866797057	-0.1722259673418253	0.1277076165509736	-0.03882735148242851	-0.01228285273604419	-0.1002729400626807	-0.101849996322924	-0.05079482908214752	0.6172637734515858	-0.0144069808314466	0.1596097221253899	-0.2983697596523081	0.6537859363028098	0.6537859363028635	0.113381185848105	0.05687861995941989	0.1719085940815746	0.02276395730495016	0.1060009953906125	-0.06118607986848961	-0.03168441632456337	-0.2346843715474538	0.2074912395295457	-0.01320392339911744	-0.06491517487610941	27.36838286615373	-3.040851257475241	4.632273522816234	11.74813080827264	-567.6458846325562	-74.7094847560854	-38.06268374360349	-2.411080968673885	-2.318765020631357	-1.294349089236884	14.57721986556291	-0.2852400743921583	3.667657455708778	-6.602277531111103	15.50396272636937	15.50396272636909	2.703203796996551	1.373971571516734	4.179670920441702	0.6107356153657147	-1.377142694652872e-07	3.862314193425636e-07	3.117964707617331e-07	2.072516863885724e-07	-6.593892629487275e-07	-1.141536402520463e-07	9.702175497356176e-09
0.05	-0.1571154396850292	0.05302180477598892	0.8962013690318799	0.3970058037805689	-0.2624815691349123	-0.2176255675084098	-0.02213173660662264	0.05287861702763257	0.05287861702763073	-0.1709594019420742	0.1283407675493486	-0.0369034605695648	-0.01202480695372963	-0.1229159369345972	-0.1243896628432168	-0.06371483005555253	0.758452600765632	-0.01699425076073838	0.1956406533558603	-0.3636059097062911	0.8048077040127546	0.8048077040127698	0.1397873128533602	0.06960827938168711	0.2127049429469173	0.02887873125347996	0.09965335291951259	-0.05976128019561143	-0.03093064514261269	-0.2314767758236358	0.2040821580668446	-0.01128909774406257	-0.05940532684836726	26.57118265345807	-3.715952007855626	4.720570538608806	10.94906512164315	-564.9478803325078	-74.76821191074097	-38.26850757633773	-2.163762568419049	-2.192063950902996	-1.299551634506219	13.7555023815639	-0.2334389840290399	3.531367833942291	-6.39678536058429	14.77377718530379	14.77377718529809	2.587731160071258	1.200939800331715	4.004921538429321	0.6167830056002405	-1.448684797349026e-07	2.418404858903302e-07	3.227732093039369e-07	2.157975773196649e-07	-7.468991286442422e-07	-1.475952609824273e-07	-2.493819948115666e-09
0.06	-0.1584532892869351	0.05167012845971583	0.8954981619381748	0.4052739051512683	-0.2626624458284717	-0.2154955813862953	-0.02607939339028637	0.06166055174279946	0.06166055174280007	-0.1694330924707101	0.1290969104764849	-0.03457654523427744	-0.01170462648772896	-0.1444730746852952	-0.1457491886906679	-0.07698387235308941	0.8942729567691952	-0.01910026196328928	0.2300938596753799	-0.4253421244819481	0.9507292074025786	0.9507292074025585	0.1653300001698599	0.08147700571395664	0.2525134785662141	0.03519089404215116	0.09330571044841902	-0.05833648052275079	-0.03017687396069368	-0.2282691800997658	0.2006730766041646	-0.00937427208901965	-0.05389547882064177	25.88582414760861	-4.4054645067204	4.805261089474481	9.910656017116551	-560.5938559910091	-74.64210620918722	-38.5062301488674	-2.193909144430167	-2.082736886063254	-1.364157354063267	13.50352560346641	-0.1889883290439478	3.352112473518581	-5.902290475445963	14.48390986234531	14.48390986234567	2.530515859245523	1.201784953517217	3.982108271232305	0.6502133833939672	-1.512156585992895e-07	9.395286484209186e-08	3.314367777674016e-07	2.230932585329796e-07	-8.297303006573736e-07	-1.805305482825776e-07	-1.48137267564627e-08
0.07000000000000001	-0.1600022262823244	0.05011075347837158	0.8946600117322685	0.4148753204248943	-0.2628618520420193	-0.2130298301126855	-0.03062616411612128	0.07187770945678931	0.07187770945678518	-0.1676554941916545	0.1299684337113316	-0.03185603183373742	-0.0113201165493284	-0.1651338734891117	-0.1659233800739306	-0.09073554761682057	1.025129650859544	-0.0206915572802928	0.2627889053242596	-0.483449988295734	1.091865111875914	1.09186511187592	0.1900436936072727	0.09266396014290715	0.2914253788000724	0.04175283727383759	0.08689721713578888	-0.05603246841848471	-0.02951124960033773	-0.2259304296939495	0.1981969203611804	-0.008167393875302992	-0.04836204735992522	25.45441631542024	-4.834940200943144	4.851873161986404	8.806496492575592	-556.4819993842616	-73.89398786098268	-38.76910354488923	-1.97508093486479	-1.954351432372799	-1.394246380940933	12.74467331721854	-0.1308303097736339	3.188025019801087	-5.680729475734642	13.80285032410295	13.80285032410644	2.419953821321684	1.052548813376891	3.821153283623512	0.6653964744340279	-1.468310513148158e-07	-1.591424858932336e-07	3.341128728548548e-07	2.05489226592276e-07	-8.428545699272893e-07	-2.426913182771373e-07	-3.656366504796427e-08
